<?xml version="1.0" encoding="UTF-8"?>
<svg xmlns="http://www.w3.org/2000/svg" viewBox="0 0 800 500" width="100%" height="100%">
  <rect width="800" height="500" rx="24" fill="#0f172a"/>
  <rect x="40" y="40" width="720" height="420" rx="20" fill="#141a26" stroke="#ff6a1a" stroke-width="2"/>
  <text x="70" y="85" font-family="'Outfit', sans-serif" font-weight="800" font-size="24" fill="#ffffff">Cleanroom Bay Reservation System</text>
  <text x="70" y="115" font-family="'Inter', sans-serif" font-size="14" fill="#94a3b8">Select cleanroom bay and reserve prime detailing slot</text>

  <rect x="70" y="150" width="210" height="140" rx="12" fill="#1e293b" stroke="#ff6a1a"/>
  <text x="90" y="185" font-family="'Outfit', sans-serif" font-weight="700" font-size="16" fill="#ff6a1a">Bay 1: Paint Polish</text>
  <text x="90" y="215" font-family="'Inter', sans-serif" font-size="13" fill="#ffffff">Status: Available</text>
  <rect x="90" y="235" width="100" height="32" rx="6" fill="#ff6a1a"/>
  <text x="140" y="256" font-family="'Inter', sans-serif" font-weight="700" font-size="12" fill="#ffffff" text-anchor="middle">Select Bay</text>

  <rect x="295" y="150" width="210" height="140" rx="12" fill="#1e293b" stroke="rgba(255,255,255,0.1)"/>
  <text x="315" y="185" font-family="'Outfit', sans-serif" font-weight="700" font-size="16" fill="#ffffff">Bay 2: Ceramic Curing</text>
  <text x="315" y="215" font-family="'Inter', sans-serif" font-size="13" fill="#10b981">Status: Reserved</text>
  <rect x="315" y="235" width="100" height="32" rx="6" fill="#334155"/>
  <text x="365" y="256" font-family="'Inter', sans-serif" font-size="12" fill="#94a3b8" text-anchor="middle">Occupied</text>

  <rect x="520" y="150" width="190" height="140" rx="12" fill="#1e293b" stroke="rgba(255,255,255,0.1)"/>
  <text x="540" y="185" font-family="'Outfit', sans-serif" font-weight="700" font-size="16" fill="#ffffff">Bay 3: Interior Spa</text>
  <text x="540" y="215" font-family="'Inter', sans-serif" font-size="13" fill="#ffffff">Status: Available</text>
  <rect x="540" y="235" width="100" height="32" rx="6" fill="#ff6a1a"/>
  <text x="590" y="256" font-family="'Inter', sans-serif" font-weight="700" font-size="12" fill="#ffffff" text-anchor="middle">Select Bay</text>

  <rect x="70" y="320" width="640" height="110" rx="12" fill="#0f172a" stroke="rgba(255,255,255,0.1)"/>
  <text x="90" y="355" font-family="'Outfit', sans-serif" font-weight="700" font-size="16" fill="#ffffff">Select Date and Preferred Time</text>

  <rect x="90" y="375" width="180" height="38" rx="8" fill="#1e293b" stroke="#ff6a1a"/>
  <text x="180" y="399" font-family="'Inter', sans-serif" font-size="13" fill="#ffffff" text-anchor="middle">Oct 12, 2026</text>

  <rect x="290" y="375" width="180" height="38" rx="8" fill="#1e293b" stroke="rgba(255,255,255,0.1)"/>
  <text x="380" y="399" font-family="'Inter', sans-serif" font-size="13" fill="#ffffff" text-anchor="middle">09:00 AM Slot</text>

  <rect x="490" y="375" width="200" height="38" rx="8" fill="#ff6a1a"/>
  <text x="590" y="399" font-family="'Outfit', sans-serif" font-weight="700" font-size="14" fill="#ffffff" text-anchor="middle">Confirm Reservation</text>
</svg>